<?xml version="1.0" encoding="UTF-8"?>
<svg version="1.1" xmlns="http://www.w3.org/2000/svg" width="500" height="500">
<path d="M0 0 C0.9546817 0.00237671 1.9093634 0.00475342 2.89297485 0.00720215 C18.04020823 0.06599873 32.43007645 1.11903636 47.25 4.4375 C48.77295463 4.74330013 50.29637353 5.04679991 51.8203125 5.34765625 C84.08767434 12.00814887 115.89941764 27.49427379 141.25 48.4375 C142.26707031 49.2521875 143.28414063 50.066875 144.33203125 50.90625 C158.57023405 62.4627885 171.49395177 75.57885713 182.25 90.4375 C183.39662109 92.00177734 183.39662109 92.00177734 184.56640625 93.59765625 C219.72944857 142.94822173 234.5952856 204.42389038 224.7890625 264.40917969 C220.64459319 287.69178714 213.66045399 310.78167732 202.26367188 331.58691406 C201.21367405 333.50381761 200.19279495 335.43466398 199.171875 337.3671875 C190.96683051 352.65416671 180.79817252 366.51825681 169.25 379.4375 C168.75999512 379.98921875 168.26999023 380.5409375 167.76513672 381.109375 C129.1302468 424.4261529 72.09564704 451.04386457 14.25 454.4375 C-46.78223307 456.77853782 -107.0688211 438.36242876 -152.5 396.4375 C-154.08161103 394.94547808 -155.65099428 393.44235996 -157.21191406 391.92871094 C-158.74314713 390.44414402 -160.28914477 388.97613762 -161.8359375 387.5078125 C-169.25100667 380.37729987 -175.60389667 372.6728652 -181.75 364.4375 C-182.16459473 363.89432129 -182.57918945 363.35114258 -183.00634766 362.79150391 C-205.04760169 333.88365231 -218.21877431 300.00658331 -224.75 264.4375 C-224.98460937 263.17550781 -225.21921875 261.91351563 -225.4609375 260.61328125 C-234.35598304 204.08462228 -220.02879985 142.56166831 -186.48828125 96.1328125 C-185.57826519 94.89901279 -184.66554651 93.66720141 -183.75 92.4375 C-183.09330322 91.54756348 -183.09330322 91.54756348 -182.42333984 90.63964844 C-151.40036622 48.91553052 -105.91268997 18.59547116 -55.375 6.1875 C-54.43269531 5.95337402 -53.49039063 5.71924805 -52.51953125 5.47802734 C-35.11743914 1.41579199 -17.83244515 -0.11790821 0 0 Z " fill="#0A1939" transform="translate(253.75,26.5625)"/>
<path d="M0 0 C0.9546817 0.00237671 1.9093634 0.00475342 2.89297485 0.00720215 C18.04020823 0.06599873 32.43007645 1.11903636 47.25 4.4375 C48.77295463 4.74330013 50.29637353 5.04679991 51.8203125 5.34765625 C84.08767434 12.00814887 115.89941764 27.49427379 141.25 48.4375 C142.26707031 49.2521875 143.28414063 50.066875 144.33203125 50.90625 C158.57023405 62.4627885 171.49395177 75.57885713 182.25 90.4375 C183.39662109 92.00177734 183.39662109 92.00177734 184.56640625 93.59765625 C219.72944857 142.94822173 234.5952856 204.42389038 224.7890625 264.40917969 C220.64459319 287.69178714 213.66045399 310.78167732 202.26367188 331.58691406 C201.21367405 333.50381761 200.19279495 335.43466398 199.171875 337.3671875 C190.96683051 352.65416671 180.79817252 366.51825681 169.25 379.4375 C168.75999512 379.98921875 168.26999023 380.5409375 167.76513672 381.109375 C129.1302468 424.4261529 72.09564704 451.04386457 14.25 454.4375 C-46.78223307 456.77853782 -107.0688211 438.36242876 -152.5 396.4375 C-154.08161103 394.94547808 -155.65099428 393.44235996 -157.21191406 391.92871094 C-158.74314713 390.44414402 -160.28914477 388.97613762 -161.8359375 387.5078125 C-169.25100667 380.37729987 -175.60389667 372.6728652 -181.75 364.4375 C-182.16459473 363.89432129 -182.57918945 363.35114258 -183.00634766 362.79150391 C-205.04760169 333.88365231 -218.21877431 300.00658331 -224.75 264.4375 C-224.98460937 263.17550781 -225.21921875 261.91351563 -225.4609375 260.61328125 C-234.35598304 204.08462228 -220.02879985 142.56166831 -186.48828125 96.1328125 C-185.57826519 94.89901279 -184.66554651 93.66720141 -183.75 92.4375 C-183.09330322 91.54756348 -183.09330322 91.54756348 -182.42333984 90.63964844 C-151.40036622 48.91553052 -105.91268997 18.59547116 -55.375 6.1875 C-54.43269531 5.95337402 -53.49039063 5.71924805 -52.51953125 5.47802734 C-35.11743914 1.41579199 -17.83244515 -0.11790821 0 0 Z M-46.75 13.4375 C-47.66749023 13.65180664 -48.58498047 13.86611328 -49.53027344 14.08691406 C-79.81468243 21.24883798 -109.39676404 34.94806082 -133.75 54.4375 C-134.71808594 55.20191406 -135.68617188 55.96632812 -136.68359375 56.75390625 C-141.47947653 60.5997227 -146.00828881 64.53407702 -150.2734375 68.9609375 C-151.75 70.4375 -151.75 70.4375 -154.25 72.375 C-157.86708882 75.35909828 -160.73207748 78.86070293 -163.75 82.4375 C-164.50410156 83.30375 -165.25820312 84.17 -166.03515625 85.0625 C-185.03059288 107.21882545 -200.22038919 133.46469876 -208.75 161.4375 C-208.99347168 162.22866211 -209.23694336 163.01982422 -209.48779297 163.83496094 C-219.86285195 198.341496 -221.94077044 238.20256074 -213.75 273.4375 C-213.60046875 274.12102539 -213.4509375 274.80455078 -213.296875 275.50878906 C-212.32716502 279.88819687 -211.10994335 284.16639661 -209.75 288.4375 C-209.35603027 289.68684326 -209.35603027 289.68684326 -208.95410156 290.96142578 C-195.52607485 332.91473575 -170.91678 371.37538188 -135.75 398.4375 C-135.21068848 398.85854004 -134.67137695 399.27958008 -134.11572266 399.71337891 C-104.75156368 422.5299552 -70.27412313 436.98069245 -33.75 443.4375 C-33.01249512 443.56882324 -32.27499023 443.70014648 -31.51513672 443.83544922 C-1.81259403 448.8032918 31.43841068 446.39176957 60.01025391 437.16015625 C62.48243081 436.36250597 64.9653703 435.60423244 67.44921875 434.84375 C77.92799544 431.56552633 87.70426174 427.67711236 97.36035156 422.45361328 C99.27791918 421.42248713 101.21009496 420.42504482 103.1484375 419.43359375 C121.01993162 410.22522304 136.77585769 398.33571253 151.25 384.4375 C151.81364258 383.90108887 152.37728516 383.36467773 152.95800781 382.81201172 C192.19625156 345.29626404 216.60999167 291.42517484 218.35864258 237.05981445 C219.42840656 173.85569288 197.41861778 117.0327485 153.49389648 71.39624023 C120.56908984 37.91532164 74.52299797 16.56972991 28.25 10.4375 C27.19409668 10.26460449 26.13819336 10.09170898 25.05029297 9.91357422 C20.60764866 9.3570307 16.25774744 9.23908661 11.78515625 9.19921875 C10.88305923 9.1894249 9.98096222 9.17963104 9.05152893 9.16954041 C-9.89899226 9.00615018 -28.2442829 8.87187622 -46.75 13.4375 Z " fill="#FBFCFC" transform="translate(253.75,26.5625)"/>
<path d="M0 0 C5.94 0 11.88 0 18 0 C24.45462466 15.50750925 30.61402548 31.10476397 36.5625 46.8125 C43.01792397 63.85467144 49.59342316 80.84609889 56.2565918 97.80810547 C57.00700567 99.71842174 57.75741258 101.62874075 58.5078125 103.5390625 C58.87797989 104.4811557 59.24814728 105.4232489 59.62953186 106.39389038 C62.2927178 113.1788453 64.92870933 119.97400691 67.5546875 126.7734375 C68.64587624 129.59279139 69.73744389 132.41199831 70.82910156 135.23117065 C71.51824276 137.01436773 72.20546502 138.79830776 72.890625 140.58303833 C73.83616833 143.04559596 74.78848619 145.50543631 75.7421875 147.96484375 C76.15040237 149.03664383 76.15040237 149.03664383 76.56686401 150.13009644 C80.1811549 159.642106 80.1811549 159.642106 87.75 165.9375 C88.54921875 166.33839844 89.3484375 166.73929688 90.171875 167.15234375 C90.77515625 167.43207031 91.3784375 167.71179688 92 168 C92 169.65 92 171.3 92 173 C67.58 173 43.16 173 18 173 C18 171.35 18 169.7 18 168 C18.98742187 167.80664062 19.97484375 167.61328125 20.9921875 167.4140625 C22.27351563 167.15367187 23.55484375 166.89328125 24.875 166.625 C26.15117187 166.36976563 27.42734375 166.11453125 28.7421875 165.8515625 C32.05924456 165.27762104 32.05924456 165.27762104 34 163 C34.62896147 155.73075989 33.09297066 150.30643624 30.5 143.56640625 C30.14486328 142.60725815 29.78972656 141.64811005 29.42382812 140.65989685 C28.29620802 137.62212556 27.14896034 134.59225637 26 131.5625 C24.85506879 128.50638851 23.71423175 125.44879802 22.57617188 122.39012146 C21.86880129 120.49300466 21.1566975 118.59764476 20.43945312 116.70423889 C20.11912109 115.85252609 19.79878906 115.00081329 19.46875 114.12329102 C19.04239258 112.99818871 19.04239258 112.99818871 18.60742188 111.85035706 C18 110 18 110 18 108 C0.18 108 -17.64 108 -36 108 C-36.33 109.65 -36.66 111.3 -37 113 C-37.55569824 114.60176734 -38.14996055 116.19055374 -38.77734375 117.765625 C-39.12603516 118.65636719 -39.47472656 119.54710937 -39.83398438 120.46484375 C-40.56378103 122.306773 -41.29552065 124.14793373 -42.02929688 125.98828125 C-45.26384028 134.26823581 -47.28464506 141.79927895 -47.3125 150.75 C-47.32925781 152.00296875 -47.34601563 153.2559375 -47.36328125 154.546875 C-46.97160192 158.26993441 -46.31816952 160.08929388 -44 163 C-38.82781379 166.46852724 -33.10819662 167.55576752 -27 168 C-27 169.65 -27 171.3 -27 173 C-43.17 173 -59.34 173 -76 173 C-76 171.35 -76 169.7 -76 168 C-75.12988281 167.5978125 -75.12988281 167.5978125 -74.2421875 167.1875 C-65.36328124 162.73339521 -61.75983186 157.10032295 -57.87109375 148.12109375 C-57.57060623 147.42992462 -57.27011871 146.73875549 -56.96052551 146.02664185 C-53.20041082 137.27215392 -49.79783005 128.37653211 -46.38174438 119.48364258 C-44.30084334 114.06701457 -42.20787471 108.65504395 -40.1171875 103.2421875 C-39.69031143 102.13595032 -39.26343536 101.02971313 -38.82362366 99.88995361 C-34.52164899 88.74620762 -30.17137967 77.62158486 -25.8125 66.5 C-25.07449579 64.61598579 -24.33653986 62.73195266 -23.59863281 60.84790039 C-22.5014978 58.04670881 -21.40433672 55.24552748 -20.30700684 52.44441223 C-16.5357637 42.81705599 -12.7702763 33.18745545 -9.00912476 23.55615234 C-8.30044923 21.74174927 -7.5914899 19.92745701 -6.88223267 18.11328125 C-5.909062 15.62397365 -4.9368253 13.13430334 -3.96484375 10.64453125 C-3.67723175 9.90938797 -3.38961975 9.17424469 -3.09329224 8.41682434 C-2.00468946 5.62576024 -0.94756449 2.84269348 0 0 Z " fill="#FBFBFC" transform="translate(187,140)"/>
<path d="M0 0 C35.64 0 71.28 0 108 0 C107.09591933 4.52040336 106.1700706 6.84935424 103.9296875 10.734375 C102.96760376 12.41200928 102.96760376 12.41200928 101.98608398 14.12353516 C101.28267368 15.33252226 100.57897137 16.54133951 99.875 17.75 C99.14815337 19.00939198 98.42167753 20.26899804 97.69555664 21.52880859 C92.4247618 30.64960745 87.02345375 39.69056861 81.57543945 48.70654297 C76.50132146 57.11667595 71.58347452 65.61031307 66.69506836 74.12939453 C62.19541916 81.95919346 57.61803688 89.73950537 53 97.5 C47.01670242 107.55526399 41.12338272 117.65590499 35.31054688 127.81054688 C30.64796674 135.93949218 25.842108 143.97723102 21 152 C28.36484074 152.07644863 35.72957805 152.12876661 43.09472656 152.16479492 C45.59704411 152.17982434 48.09933557 152.2002535 50.6015625 152.22631836 C54.21100325 152.26295878 57.82009383 152.27978546 61.4296875 152.29296875 C63.09123367 152.31619453 63.09123367 152.31619453 64.78634644 152.33988953 C76.5869592 152.34241129 85.90500088 149.4338742 94.71875 141.44140625 C102.6316196 133.02388936 105.01676784 122.04482952 107 111 C107.99 111 108.98 111 110 111 C110 126.51 110 142.02 110 158 C71.06 158 32.12 158 -8 158 C-6.87573558 150.13014903 -6.87573558 150.13014903 -4.875 146.9609375 C-4.19957153 145.86616089 -4.19957153 145.86616089 -3.51049805 144.74926758 C-3.01203369 143.96575928 -2.51356934 143.18225098 -2 142.375 C-0.90041864 140.59624069 0.19711476 138.81621433 1.29296875 137.03515625 C1.88899902 136.07109863 2.4850293 135.10704102 3.09912109 134.11376953 C6.21629211 129.00763042 9.22050404 123.83586897 12.23178101 118.66690063 C17.98255402 108.79917629 23.79322258 98.9703793 29.6875 89.1875 C35.15905082 80.10450951 40.54299119 70.97475667 45.87182617 61.80737305 C49.71996111 55.18814645 53.5976998 48.58742897 57.5 42 C62.27695847 33.93232995 67.0239722 25.8476157 71.75 17.75 C72.35908203 16.70714844 72.96816406 15.66429687 73.59570312 14.58984375 C74.15708984 13.62691406 74.71847656 12.66398438 75.296875 11.671875 C75.79541992 10.8169043 76.29396484 9.96193359 76.80761719 9.08105469 C77.57532191 7.74118675 78.30940364 6.38119271 79 5 C71.81358525 4.99084932 64.62846805 5.0286146 57.44238281 5.09765625 C55.00233407 5.1157259 52.56218376 5.12340132 50.12207031 5.12011719 C28.55249784 4.85943028 28.55249784 4.85943028 10.75 15.875 C5.14363442 22.73897799 0.79509294 31.61472117 -2 40 C-2.99 40 -3.98 40 -5 40 C-3.88410989 26.60931873 -1.90029238 13.30204663 0 0 Z " fill="#DEBF9C" transform="translate(264,221)"/>
<path d="M0 0 C2.68331514 2.33775309 3.74959273 4.43481452 4.92944336 7.77172852 C5.27667953 8.7402626 5.62391571 9.70879669 5.98167419 10.7066803 C6.34737015 11.75351486 6.7130661 12.80034943 7.08984375 13.87890625 C7.47564102 14.96074692 7.86143829 16.04258759 8.25892639 17.1572113 C9.49315724 20.62284622 10.71573389 24.09245341 11.9375 27.5625 C13.15794389 31.00671375 14.3808032 34.4500542 15.60536194 37.89280701 C16.3662661 40.03440842 17.12443321 42.17698499 17.87937927 44.32069397 C19.87229766 49.95496653 21.97171536 55.51635318 24.27345276 61.03233337 C25 63 25 63 25 65 C8.83 65 -7.34 65 -24 65 C-23.24794899 61.23974495 -22.43440216 58.21016581 -21.09814453 54.67822266 C-20.7074881 53.6400943 -20.31683167 52.60196594 -19.91433716 51.53237915 C-19.49143402 50.42083466 -19.06853088 49.30929016 -18.6328125 48.1640625 C-18.19742157 47.01134857 -17.76203064 45.85863464 -17.31344604 44.67098999 C-16.39226645 42.2343965 -15.46921606 39.79850959 -14.54443359 37.36328125 C-13.13350695 33.64740428 -11.72836255 29.92938214 -10.32421875 26.2109375 C-9.42742337 23.84101713 -8.53029874 21.47122132 -7.6328125 19.1015625 C-7.21395782 17.99406647 -6.79510315 16.88657043 -6.36355591 15.74551392 C-4.34899155 10.44504826 -2.28895277 5.18823138 0 0 Z " fill="#0C1B3B" transform="translate(178,178)"/>
<path d="M0 0 C2.64 0.33 5.28 0.66 8 1 C7.59987667 7.1518962 4.64730038 11.44929739 1.5 16.5625 C0.30642173 18.54114216 -0.88624032 20.52033721 -2.078125 22.5 C-2.71556641 23.55316406 -3.35300781 24.60632813 -4.00976562 25.69140625 C-7.11188376 30.84841128 -10.14801089 36.04366398 -13.18435669 41.23953247 C-14.62389104 43.70210541 -16.06621438 46.16304016 -17.50843811 48.6240387 C-20.41766786 53.58856572 -23.32461846 58.55442699 -26.23124695 63.52047729 C-28.00784849 66.55560103 -29.78500289 69.59040068 -31.5625 72.625 C-31.91337677 73.22405151 -32.26425354 73.82310303 -32.62576294 74.44030762 C-38.43986525 84.36399568 -44.29738803 94.26126205 -50.16967773 104.15063477 C-55.25921049 112.72958923 -60.29904701 121.33669283 -65.30932617 129.9621582 C-66.35764459 131.76549555 -67.41137459 133.56570083 -68.47119141 135.36230469 C-69.52656802 137.18317485 -70.54782019 139.02410253 -71.54052734 140.87988281 C-72.04277832 141.7922168 -72.5450293 142.70455078 -73.0625 143.64453125 C-73.49949219 144.46671143 -73.93648438 145.2888916 -74.38671875 146.13598633 C-76 148 -76 148 -78.58203125 148.6237793 C-81.13294865 148.62489421 -83.49115066 148.44623802 -86 148 C-81.84797189 140.30434107 -77.56741339 132.69303363 -73.1875 125.125 C-72.21852783 123.44821167 -72.21852783 123.44821167 -71.22998047 121.73754883 C-64.25882951 109.68508138 -57.20964572 97.67836372 -50.15722656 85.67333984 C-46.95429034 80.22045945 -43.75718071 74.76416364 -40.55966187 69.30810547 C-38.79387396 66.29513418 -37.02780881 63.28232543 -35.26171875 60.26953125 C-34.91170303 59.6724234 -34.56168732 59.07531555 -34.20106506 58.46011353 C-32.04647144 54.78465029 -29.89131713 51.10951641 -27.73576355 47.43461609 C-18.46877049 31.63569845 -9.22004668 15.82637971 0 0 Z " fill="#262E46" transform="translate(370,226)"/>
<path d="M0 0 C0.33 0 0.66 0 1 0 C1.495 6.93 1.495 6.93 2 14 C2.66 11.36 3.32 8.72 4 6 C4.66 6 5.32 6 6 6 C6 21.51 6 37.02 6 53 C-32.94 53 -71.88 53 -112 53 C-112 48 -112 48 -111 47 C-109.55786001 46.90441964 -108.11105921 46.87811606 -106.66575623 46.87974548 C-105.26273758 46.87768349 -105.26273758 46.87768349 -103.83137512 46.87557983 C-102.79703842 46.87917511 -101.76270172 46.88277039 -100.69702148 46.88647461 C-99.61422913 46.88632858 -98.53143677 46.88618256 -97.41583252 46.8860321 C-93.81756626 46.88673177 -90.21935103 46.89452667 -86.62109375 46.90234375 C-84.13387582 46.90420774 -81.64665752 46.90563173 -79.15943909 46.90663147 C-73.26978809 46.9100665 -67.3801561 46.91795723 -61.49051291 46.92798096 C-54.12974626 46.94023754 -46.76897736 46.94562209 -39.40820312 46.95117188 C-26.27212419 46.96191185 -13.13606735 46.97950987 0 47 C0 31.49 0 15.98 0 0 Z " fill="#222C44" transform="translate(374,332)"/>
<path d="M0 0 C17.82 0 35.64 0 54 0 C56 4 56 4 56 7 C40.16 7 24.32 7 8 7 C7.01 9.97 6.02 12.94 5 16 C4.42713857 17.58892975 3.84528504 19.17471729 3.24609375 20.75390625 C2.80040039 21.94209961 2.80040039 21.94209961 2.34570312 23.15429688 C1.73845772 24.76447662 1.12906924 26.37384971 0.51757812 27.98242188 C-2.20734803 35.26670158 -4.2894819 41.99458069 -4.1875 49.875 C-4.18105469 50.98617187 -4.17460937 52.09734375 -4.16796875 53.2421875 C-4.18327958 55.96011643 -4.18327958 55.96011643 -3 58 C-6.42912935 57.04746407 -7.87151089 56.15821246 -10.14453125 53.359375 C-13.96297388 46.44598414 -12.67898192 37.0509635 -11.0625 29.5 C-7.88620051 19.48984404 -3.82692364 9.77991596 0 0 Z " fill="#1F2D49" transform="translate(151,248)"/>
<path d="M0 0 C1.65 0 3.3 0 5 0 C5.25990723 0.6899707 5.51981445 1.37994141 5.78759766 2.09082031 C12.73795978 20.52268659 19.82784844 38.89720742 26.98208618 57.25076294 C30.83240435 67.13118068 34.66715812 77.01763689 38.50109863 86.90441895 C39.33195054 89.04696277 40.16292334 91.18945972 40.99401855 93.33190918 C48.72909462 113.2725964 48.72909462 113.2725964 52.1875 122.3046875 C52.6302124 123.46081543 53.0729248 124.61694336 53.52905273 125.80810547 C54.31848662 127.87190444 55.10711613 129.93601136 55.89477539 132.00048828 C58.48771219 138.76502874 61.20640273 145.47177767 64.11035156 152.109375 C64.79688627 153.71654694 65.40704667 155.35599942 66 157 C65.67 157.66 65.34 158.32 65 159 C55.42051084 151.11100893 51.83166377 136.76321886 47.62631226 125.49459839 C45.87796632 120.81150799 44.1072086 116.1368757 42.33984375 111.4609375 C41.97766251 110.50104416 41.61548126 109.54115082 41.24232483 108.5521698 C37.62845592 98.985981 33.91719561 89.45899889 30.1875 79.9375 C29.538854 78.27902107 28.89033602 76.62049206 28.24194336 74.96191406 C26.894645 71.51584231 25.54703637 68.06989213 24.19921875 64.62402344 C20.44856632 55.03327694 16.7008286 45.44142423 12.9659729 35.84451294 C12.12234599 33.67880851 11.27730326 31.513655 10.43075562 29.34909058 C9.24577889 26.31876332 8.06572292 23.28656134 6.88671875 20.25390625 C6.5374231 19.36393951 6.18812744 18.47397278 5.82824707 17.55703735 C3.59005373 11.78028801 1.69465312 5.95863187 0 0 Z " fill="#24324E" transform="translate(208,147)"/>
<path d="M0 0 C2.45048807 0.03013692 4.90101184 0.05750612 7.3515625 0.08203125 C13.31849469 0.1477282 19.284079 0.24778112 25.25 0.375 C24.59 2.355 23.93 4.335 23.25 6.375 C22.11570557 6.39481934 20.98141113 6.41463867 19.81274414 6.43505859 C15.56888154 6.51163829 11.32533864 6.60027121 7.08178711 6.69238281 C5.2517736 6.73045768 3.42169073 6.76534638 1.59155273 6.796875 C-1.05249685 6.84299633 -3.69607758 6.90090831 -6.33984375 6.9609375 C-7.14646957 6.97248871 -7.9530954 6.98403992 -8.78416443 6.99594116 C-19.97951445 7.28108372 -28.18395181 9.95464411 -36.75 17.375 C-42.36947201 24.64511606 -46.11278335 32.99474625 -49.75 41.375 C-50.74 41.375 -51.73 41.375 -52.75 41.375 C-52.73839844 40.61574219 -52.72679687 39.85648437 -52.71484375 39.07421875 C-52.70582031 38.08035156 -52.69679688 37.08648437 -52.6875 36.0625 C-52.67589844 35.07636719 -52.66429687 34.09023438 -52.65234375 33.07421875 C-52.62670138 30.27536151 -52.62670138 30.27536151 -53.75 27.375 C-48.99178173 16.63271739 -41.6582119 6.76746049 -30.94799805 1.59228516 C-21.39216449 -1.74565882 -9.95117358 -0.21295244 0 0 Z " fill="#232C44" transform="translate(317.75,225.625)"/>
<path d="M0 0 C4.28983513 3.7025648 5.41506713 8.50431484 6 14 C5.2979518 18.19327402 3.79384496 21.89107345 2.13671875 25.79296875 C1.71074905 26.86501053 1.28477936 27.93705231 0.84590149 29.0415802 C-0.51082952 32.43629735 -1.91059493 35.8112232 -3.3125 39.1875 C-4.24444422 41.49687558 -5.17351191 43.8074142 -6.09960938 46.11914062 C-8.36161318 51.76301225 -10.68104635 57.37797212 -13 63 C-0.46 63 12.08 63 25 63 C25 63.66 25 64.32 25 65 C8.83 65 -7.34 65 -24 65 C-23.24794899 61.23974495 -22.43440216 58.21016581 -21.09814453 54.67822266 C-20.7074881 53.6400943 -20.31683167 52.60196594 -19.91433716 51.53237915 C-19.49143402 50.42083466 -19.06853088 49.30929016 -18.6328125 48.1640625 C-18.19742157 47.01134857 -17.76203064 45.85863464 -17.31344604 44.67098999 C-16.39226645 42.2343965 -15.46921606 39.79850959 -14.54443359 37.36328125 C-13.13350695 33.64740428 -11.72836255 29.92938214 -10.32421875 26.2109375 C-9.42742337 23.84101713 -8.53029874 21.47122132 -7.6328125 19.1015625 C-7.21395782 17.99406647 -6.79510315 16.88657043 -6.36355591 15.74551392 C-4.34899155 10.44504826 -2.28895277 5.18823138 0 0 Z " fill="#273450" transform="translate(178,178)"/>
<path d="M0 0 C0.33 0 0.66 0 1 0 C1 1.65 1 3.3 1 5 C3.31 5.66 5.62 6.32 8 7 C8 8.65 8 10.3 8 12 C-16.42 12 -40.84 12 -66 12 C-66 10.35 -66 8.7 -66 7 C-64.68 6.67 -63.36 6.34 -62 6 C-64.31 5.67 -66.62 5.34 -69 5 C-69 4.67 -69 4.34 -69 4 C-60.44648426 3.97684194 -51.89298159 3.95906721 -43.33944225 3.94818783 C-39.36780376 3.9429666 -35.3961867 3.9358827 -31.42456055 3.92456055 C-27.59258628 3.91370473 -23.76063264 3.90771743 -19.92864418 3.90512276 C-18.46579984 3.90327338 -17.00295665 3.89966208 -15.54012108 3.89426994 C-13.49311243 3.88702378 -11.44618931 3.88601057 -9.39916992 3.88647461 C-8.23334885 3.884254 -7.06752777 3.88203339 -5.86637878 3.87974548 C-3 4 -3 4 0 5 C0 3.35 0 1.7 0 0 Z " fill="#2F3C56" transform="translate(279,308)"/>
<path d="M0 0 C6.06891692 -0.0493933 12.13771713 -0.08571643 18.20678711 -0.10986328 C20.271912 -0.11992835 22.33702263 -0.13358154 24.40209961 -0.15087891 C27.36836264 -0.17510493 30.33443744 -0.18647797 33.30078125 -0.1953125 C34.2258699 -0.20563507 35.15095856 -0.21595764 36.1040802 -0.22659302 C36.96474594 -0.22674408 37.82541168 -0.22689514 38.7121582 -0.22705078 C39.46938675 -0.231492 40.2266153 -0.23593323 41.00679016 -0.24050903 C43 0 43 0 46 2 C48.0492094 2.45139459 48.0492094 2.45139459 50.1875 2.625 C51.445625 2.74875 52.70375 2.8725 54 3 C54 4.65 54 6.3 54 8 C37.83 8 21.66 8 5 8 C5 3 5 3 6 2 C3.03 1.505 3.03 1.505 0 1 C0 0.67 0 0.34 0 0 Z " fill="#2F3C56" transform="translate(114,312)"/>
<path d="M0 0 C1.51245117 1.32348633 1.51245117 1.32348633 3 3 C2.40025686 11.50224095 -1.41336195 19.96041281 -4.94921875 27.6328125 C-6.1454668 30.32770587 -7.20165351 33.05664603 -8.25 35.8125 C-8.66636719 36.89660156 -9.08273438 37.98070312 -9.51171875 39.09765625 C-10.3310488 41.23590784 -11.14051126 43.37715412 -11.93994141 45.52294922 C-12.9663332 48.27099868 -14.01331034 51.01058426 -15.0625 53.75 C-15.39088867 54.64436768 -15.71927734 55.53873535 -16.05761719 56.46020508 C-16.54149902 57.70966919 -16.54149902 57.70966919 -17.03515625 58.984375 C-17.3175415 59.73428711 -17.59992676 60.48419922 -17.89086914 61.25683594 C-19 63 -19 63 -21.12280273 63.75097656 C-21.74227783 63.8331543 -22.36175293 63.91533203 -23 64 C-22.42820392 57.6786883 -20.40974475 52.27316807 -18.10546875 46.38671875 C-17.71684158 45.37712601 -17.32821442 44.36753326 -16.92781067 43.3273468 C-15.6879124 40.11136017 -14.43781061 36.89945083 -13.1875 33.6875 C-12.35806283 31.53996877 -11.52928021 29.39218462 -10.70117188 27.24414062 C-7.18636459 18.14145913 -3.64097086 9.05305271 0 0 Z " fill="#152342" transform="translate(178,178)"/>
<path d="M0 0 C1.65 0 3.3 0 5 0 C8.64670147 7.52943541 11.91147495 14.88406495 14 23 C12.02 23 10.04 23 8 23 C7.67 22.01 7.34 21.02 7 20 C4.03 19.67 1.06 19.34 -2 19 C-2.33 20.32 -2.66 21.64 -3 23 C-4.65 23 -6.3 23 -8 23 C-7.38696372 17.59491957 -5.55619307 13.07560955 -3.4375 8.125 C-3.10814453 7.34125 -2.77878906 6.5575 -2.43945312 5.75 C-1.63203214 3.83091244 -0.81680231 1.9151135 0 0 Z " fill="#F0F1F3" transform="translate(251,160)"/>
<path d="M0 0 C2.42260742 0.17822266 2.42260742 0.17822266 5 1 C6.30200195 2.81005859 6.30200195 2.81005859 7.23828125 5.1484375 C7.58310547 5.98890625 7.92792969 6.829375 8.28320312 7.6953125 C8.79270508 9.02175781 8.79270508 9.02175781 9.3125 10.375 C9.67150391 11.2515625 10.03050781 12.128125 10.40039062 13.03125 C13 19.50799107 13 19.50799107 13 23 C11.35 23 9.7 23 8 23 C7.67 21.68 7.34 20.36 7 19 C3.7 19 0.4 19 -3 19 C-3.33 20.32 -3.66 21.64 -4 23 C-5.65 23 -7.3 23 -9 23 C-3.76595745 3.76595745 -3.76595745 3.76595745 0 0 Z " fill="#F0F1F3" transform="translate(352,160)"/>
<path d="M0 0 C3.27191292 1.35815253 5.49895506 2.49895506 8 5 C8 5.99 8 6.98 8 8 C6.02 8 4.04 8 2 8 C2 7.34 2 6.68 2 6 C0.72125 5.938125 -0.5575 5.87625 -1.875 5.8125 C-2.95394531 5.76029297 -2.95394531 5.76029297 -4.0546875 5.70703125 C-5.01761719 5.85205078 -5.01761719 5.85205078 -6 6 C-8.30163882 9.45245824 -8.34490322 10.94738713 -8 15 C-6.05667668 17.37994368 -6.05667668 17.37994368 -2.5 17.25 C1.05667668 17.37994368 1.05667668 17.37994368 3 15 C5.625 14.875 5.625 14.875 8 15 C7.69461464 17.85026332 6.95551924 19.05165508 5.0625 21.25 C0.68290104 23.75262797 -3.08028781 24.14557892 -8 23 C-11.62506449 20.69769079 -13.54651051 17.91326224 -14.53515625 13.7421875 C-14.8121808 9.55130323 -14.27727656 6.80149052 -11.625 3.5 C-7.64773631 -0.28787018 -5.46414033 -0.36427602 0 0 Z " fill="#F1F2F4" transform="translate(328,160)"/>
<path d="M0 0 C5.61 0 11.22 0 17 0 C15.40964498 4.77106506 13.77190615 8.52505921 11.375 12.875 C10.74335938 14.02742187 10.11171875 15.17984375 9.4609375 16.3671875 C8.97882813 17.23601562 8.49671875 18.10484375 8 19 C10.97 19 13.94 19 17 19 C17 20.32 17 21.64 17 23 C11.39 23 5.78 23 0 23 C1.48897285 18.53308145 2.86931765 15.14599898 5.125 11.125 C5.93324219 9.67480469 5.93324219 9.67480469 6.7578125 8.1953125 C7.16773438 7.47085938 7.57765625 6.74640625 8 6 C5.36 5.67 2.72 5.34 0 5 C0 3.35 0 1.7 0 0 Z " fill="#F2F3F5" transform="translate(273,160)"/>
<path d="M0 0 C4.29 0 8.58 0 13 0 C13.33 1.65 13.66 3.3 14 5 C11.36 5 8.72 5 6 5 C6 6.32 6 7.64 6 9 C8.31 9 10.62 9 13 9 C13 10.65 13 12.3 13 14 C10.36 14 7.72 14 5 14 C5 16.97 5 19.94 5 23 C3.35 23 1.7 23 0 23 C0 15.41 0 7.82 0 0 Z " fill="#EEEFF1" transform="translate(374,160)"/>
<path d="M0 0 C1.65 0 3.3 0 5 0 C3.42130588 5.7287461 1.59739099 11.13168588 -0.8984375 16.5234375 C-2.68388305 20.53752431 -4.20154201 24.65208425 -5.76171875 28.7578125 C-7.45564642 33.19301743 -9.22139524 37.59820162 -11 42 C-11.33 42 -11.66 42 -12 42 C-12.99508644 27.40539891 -5.3393126 13.17331813 0 0 Z " fill="#162443" transform="translate(151,248)"/>
<path d="M0 0 C3.75101166 0.8233928 5.23782674 2.57363438 7.5625 5.5625 C8.125 8.125 8.125 8.125 7.5625 10.5625 C6 12.9375 6 12.9375 3.5625 14.5625 C0.0664028 14.50116496 -2.37264814 14.21515114 -5.375 12.375 C-6.99784621 9.60661529 -6.88672076 7.70704533 -6.4375 4.5625 C-4.48226263 1.81068444 -3.29690593 0.76082445 0 0 Z " fill="#D2D4DA" transform="translate(365.4375,202.4375)"/>
<path d="M0 0 C3.44277758 0.68855552 4.53221339 1.58476058 6.5 4.5 C7.01688443 7.40603916 6.83965896 9.49159211 6.5 12.5 C3.5 14.5 3.5 14.5 0 14.375 C-3.5 13.5 -3.5 13.5 -5.4375 11.75 C-6.73370853 9.00508782 -7.02487013 7.49925788 -6.5 4.5 C-4.50600369 1.76748653 -3.3376027 0.66752054 0 0 Z " fill="#1B2947" transform="translate(279.5,202.5)"/>
<path d="M0 0 C6 0 6 0 9 2 C8.835 2.7425 8.67 3.485 8.5 4.25 C7.91743828 7.45408946 7.50742143 10.01484286 9 13 C7.0625 12.1875 7.0625 12.1875 5 11 C4.67 10.01 4.34 9.02 4 8 C3.34 8 2.68 8 2 8 C2 9.65 2 11.3 2 13 C1.34 13 0.68 13 0 13 C0 8.71 0 4.42 0 0 Z " fill="#9AA0AD" transform="translate(303,203)"/>
<path d="M0 0 C0.66 0.66 1.32 1.32 2 2 C1.625 5.625 1.625 5.625 1 9 C-1.33294775 9.04241723 -3.66702567 9.04092937 -6 9 C-7 8 -7 8 -7.0625 4.4375 C-7.041875 3.303125 -7.02125 2.16875 -7 1 C-4.48718205 -0.25640898 -2.78302919 -0.20872719 0 0 Z " fill="#1B2947" transform="translate(368,205)"/>
<path d="M0 0 C3.44277758 0.68855552 4.53221339 1.58476058 6.5 4.5 C7.01688443 7.40603916 6.83965896 9.49159211 6.5 12.5 C3.5 14.5 3.5 14.5 0 14.375 C-3.5 13.5 -3.5 13.5 -5.4375 11.75 C-6.73370853 9.00508782 -7.02487013 7.49925788 -6.5 4.5 C-4.50600369 1.76748653 -3.3376027 0.66752054 0 0 Z M-4.5 4.5 C-4.17673447 8.09679066 -4.17673447 8.09679066 -3.5 11.5 C-1.14632287 12.1878236 -1.14632287 12.1878236 1.5 12.5 C2.49 11.84 3.48 11.18 4.5 10.5 C4.91666667 7.5 4.91666667 7.5 4.5 4.5 C2.67296773 2.2508092 2.67296773 2.2508092 0 2.25 C-2.67296773 2.2508092 -2.67296773 2.2508092 -4.5 4.5 Z " fill="#BEC1CA" transform="translate(279.5,202.5)"/>
<path d="M0 0 C1.98 0 3.96 0 6 0 C6.66 0.66 7.32 1.32 8 2 C7.625 4.625 7.625 4.625 7 7 C5.35 7.33 3.7 7.66 2 8 C2 9.98 2 11.96 2 14 C1.34 13.67 0.68 13.34 0 13 C0 8.71 0 4.42 0 0 Z " fill="#CED1D8" transform="translate(260,203)"/>
<path d="M0 0 C0.66 0 1.32 0 2 0 C2.86355778 1.95421035 3.71559934 3.91351347 4.5625 5.875 C5.03816406 6.96554688 5.51382812 8.05609375 6.00390625 9.1796875 C6.33261719 10.11039063 6.66132813 11.04109375 7 12 C6.67 12.66 6.34 13.32 6 14 C5.34 12.68 4.68 11.36 4 10 C2.02 10 0.04 10 -2 10 C-2.33 10.99 -2.66 11.98 -3 13 C-4.23593891 9.29218328 -3.5678132 8.32489747 -2.0625 4.8125 C-1.68222656 3.91144531 -1.30195313 3.01039063 -0.91015625 2.08203125 C-0.60980469 1.39496094 -0.30945313 0.70789063 0 0 Z " fill="#B3B7C1" transform="translate(321,203)"/>
<path d="M0 0 C1 3 1 3 -0.43359375 6.13671875 C-1.09135973 7.3260128 -1.75977815 8.50946371 -2.4375 9.6875 C-2.77587891 10.29400391 -3.11425781 10.90050781 -3.46289062 11.52539062 C-4.29957915 13.0220025 -5.14862831 14.51169189 -6 16 C-4.02 16.33 -2.04 16.66 0 17 C0 17.33 0 17.66 0 18 C-2.97 18 -5.94 18 -9 18 C-7.65072455 13.46152802 -5.80840652 9.68067754 -3.375 5.625 C-2.74335938 4.56539062 -2.11171875 3.50578125 -1.4609375 2.4140625 C-0.73777344 1.21910156 -0.73777344 1.21910156 0 0 Z " fill="#777F91" transform="translate(290,161)"/>
<path d="M0 0 C0.33 0 0.66 0 1 0 C1 4.29 1 8.58 1 13 C-3.875 8.25 -3.875 8.25 -5 6 C-5.33 8.31 -5.66 10.62 -6 13 C-6.33 13 -6.66 13 -7 13 C-7 9.04 -7 5.08 -7 1 C-2.125 5.75 -2.125 5.75 -1 8 C-0.67 5.36 -0.34 2.72 0 0 Z " fill="#EAEBEE" transform="translate(340,203)"/>
<path d="M0 0 C2.64 0 5.28 0 8 0 C8 0.99 8 1.98 8 3 C7.01 3 6.02 3 5 3 C5 6.63 5 10.26 5 14 C4.34 13.67 3.68 13.34 3 13 C3 9.37 3 5.74 3 2 C2.01 2 1.02 2 0 2 C0 1.34 0 0.68 0 0 Z " fill="#B4B9C3" transform="translate(291,203)"/>
<path d="M0 0 C0.66 0.33 1.32 0.66 2 1 C2.36337162 4.27034459 2.28544288 5.60883753 0.3125 8.3125 C-2.39116247 10.28544288 -3.72965541 10.36337162 -7 10 C-7.33 9.01 -7.66 8.02 -8 7 C-6.02 7 -4.04 7 -2 7 C-1.34 4.69 -0.68 2.38 0 0 Z " fill="#9198A6" transform="translate(371,207)"/>
<path d="M0 0 C2.31 0 4.62 0 7 0 C7 0.66 7 1.32 7 2 C6.01 2 5.02 2 4 2 C4 5.63 4 9.26 4 13 C3.34 13 2.68 13 2 13 C2 9.37 2 5.74 2 2 C1.34 2 0.68 2 0 2 C0 1.34 0 0.68 0 0 Z " fill="#B6BBC4" transform="translate(347,203)"/>
<path d="M0 0 C0.928125 0.0825 1.85625 0.165 2.8125 0.25 C2.19375 0.53875 1.575 0.8275 0.9375 1.125 C-1.32075765 2.18720042 -1.32075765 2.18720042 -3.1875 4.25 C-3.58797444 6.57275177 -3.9272104 8.90739357 -4.1875 11.25 C-4.8475 10.92 -5.5075 10.59 -6.1875 10.25 C-6.40681821 7.03333296 -6.45578383 4.81637697 -5.0625 1.875 C-3.1875 0.25 -3.1875 0.25 0 0 Z " fill="#656E82" transform="translate(325.1875,164.75)"/>
<path d="M0 0 C0.66 0.33 1.32 0.66 2 1 C2.625 4.0625 2.625 4.0625 3 7 C1.35 7 -0.3 7 -2 7 C-1.34 4.69 -0.68 2.38 0 0 Z " fill="#5C667B" transform="translate(253,167)"/>
<path d="M0 0 C2.475 0.495 2.475 0.495 5 1 C5 1.99 5 2.98 5 4 C3.35 4.33 1.7 4.66 0 5 C0 3.35 0 1.7 0 0 Z " fill="#313E59" transform="translate(262,205)"/>
<path d="M0 0 C0.66 0 1.32 0 2 0 C2.33 1.98 2.66 3.96 3 6 C1.68 6 0.36 6 -1 6 C-0.67 4.02 -0.34 2.04 0 0 Z " fill="#525D73" transform="translate(353,168)"/>
</svg>
