<svg xmlns="http://www.w3.org/2000/svg" xmlns:xlink="http://www.w3.org/1999/xlink" width="500" zoomAndPan="magnify" viewBox="0 0 375 374.999991" height="500" preserveAspectRatio="xMidYMid meet" version="1.0"><defs><g/><clipPath id="a22ffccaf8"><rect x="0" width="159" y="0" height="280"/></clipPath><clipPath id="bdf0feff58"><rect x="0" width="233" y="0" height="343"/></clipPath><clipPath id="c9cbea6880"><path d="M 291.269531 415.570312 L -20.03125 299.457031 L 96.082031 -11.84375 L 407.382812 104.273438 Z M 291.269531 415.570312 " clip-rule="nonzero"/></clipPath><clipPath id="24a273de30"><path d="M 27 35 L 360 35 L 360 369 L 27 369 Z M 27 35 " clip-rule="nonzero"/></clipPath><clipPath id="e0dacd111e"><path d="M 291.269531 415.570312 L -20.03125 299.457031 L 96.082031 -11.84375 L 407.382812 104.273438 Z M 291.269531 415.570312 " clip-rule="nonzero"/></clipPath><clipPath id="9f0a451b0e"><path d="M -20.164062 299.410156 L 291.136719 415.523438 L 407.25 104.222656 L 95.949219 -11.890625 Z M -20.164062 299.410156 " clip-rule="nonzero"/></clipPath><clipPath id="b61eb2e7dc"><path d="M -20.164062 299.410156 L 291.277344 415.574219 L 407.441406 104.136719 L 96.003906 -12.03125 Z M -20.164062 299.410156 " clip-rule="nonzero"/></clipPath><clipPath id="ac5ef67a7f"><rect x="0" width="375" y="0" height="375"/></clipPath><clipPath id="1275ccaa6e"><rect x="0" width="162" y="0" height="276"/></clipPath><clipPath id="3eebfa50ba"><rect x="0" width="241" y="0" height="353"/></clipPath><clipPath id="faa79ead83"><path d="M 280.695312 411.316406 L -39.035156 292.058594 L 80.222656 -27.671875 L 399.957031 91.585938 Z M 280.695312 411.316406 " clip-rule="nonzero"/></clipPath><clipPath id="1d4cf5e264"><path d="M 9 21 L 352 21 L 352 363 L 9 363 Z M 9 21 " clip-rule="nonzero"/></clipPath><clipPath id="d26f958f99"><path d="M 280.695312 411.316406 L -39.035156 292.058594 L 80.222656 -27.671875 L 399.957031 91.585938 Z M 280.695312 411.316406 " clip-rule="nonzero"/></clipPath><clipPath id="90e9a822a9"><path d="M -38.914062 292.105469 L 280.816406 411.363281 L 400.078125 91.628906 L 80.34375 -27.628906 Z M -38.914062 292.105469 " clip-rule="nonzero"/></clipPath><clipPath id="30a8822372"><path d="M -38.914062 292.105469 L 280.703125 411.320312 L 399.921875 91.703125 L 80.300781 -27.515625 Z M -38.914062 292.105469 " clip-rule="nonzero"/></clipPath><clipPath id="b2bf7b2a49"><rect x="0" width="375" y="0" height="375"/></clipPath></defs><g transform="matrix(1, 0, 0, 1, 216, 7)"><g clip-path="url(#a22ffccaf8)"><g fill="#e7edeb" fill-opacity="1"><g transform="translate(0.734976, 215.156561)"><g><path d="M 123.6875 -140.125 L 123.6875 -110.21875 L 47.640625 -29.90625 L 123.6875 -29.90625 L 123.6875 0.21875 L 6.40625 0 L 6.40625 -29.90625 L 82.453125 -110.21875 L 6.40625 -110.21875 L 6.40625 -140.125 Z M 123.6875 -140.125 "/></g></g></g></g></g><g transform="matrix(1, 0, 0, 1, 39, 10)"><g clip-path="url(#bdf0feff58)"><g fill="#e7edeb" fill-opacity="1"><g transform="translate(232.035983, 72.740839)"><g><path d="M -99.09375 0 L -99.09375 0.265625 L -7.84375 169.9375 L -54.90625 169.9375 L -99.359375 85.234375 L -143.53125 169.9375 L -190.59375 169.9375 L -99.359375 0.265625 Z M -99.09375 0 "/></g></g></g></g></g><g clip-path="url(#c9cbea6880)"><g transform="matrix(1, 0, 0, 1, 0, 0)"><g clip-path="url(#ac5ef67a7f)"><g clip-path="url(#24a273de30)"><g clip-path="url(#e0dacd111e)"><g clip-path="url(#9f0a451b0e)"><g clip-path="url(#b61eb2e7dc)"><path fill="#e7edeb" d="M 258.910156 50.921875 C 180.4375 21.652344 93.097656 61.539062 63.828125 140.007812 C 34.558594 218.480469 74.445312 305.816406 152.914062 335.085938 C 231.386719 364.355469 318.722656 324.46875 347.992188 246 C 360.976562 211.195312 360.339844 174.644531 348.777344 142.1875 C 362.820312 178.714844 364.109375 220.308594 349.359375 259.855469 C 317.28125 345.855469 221.558594 389.570312 135.554688 357.492188 C 49.554688 325.414062 5.839844 229.691406 37.917969 143.6875 C 69.996094 57.6875 165.71875 13.972656 251.722656 46.050781 C 270.011719 52.875 286.382812 62.585938 300.527344 74.460938 C 288.300781 64.707031 274.359375 56.683594 258.910156 50.921875 " fill-opacity="1" fill-rule="nonzero"/></g></g></g></g></g></g></g><g transform="matrix(1, 0, 0, 1, 206, 0)"><g clip-path="url(#1275ccaa6e)"><g fill="#00a8cc" fill-opacity="1"><g transform="translate(0.773043, 210.83591)"><g><path d="M 123.6875 -140.125 L 123.6875 -110.21875 L 47.640625 -29.90625 L 123.6875 -29.90625 L 123.6875 0.21875 L 6.40625 0 L 6.40625 -29.90625 L 82.453125 -110.21875 L 6.40625 -110.21875 L 6.40625 -140.125 Z M 123.6875 -140.125 "/></g></g></g></g></g><g transform="matrix(1, 0, 0, 1, 13, 0)"><g clip-path="url(#3eebfa50ba)"><g fill="#00a8cc" fill-opacity="1"><g transform="translate(240.873992, 72.890531)"><g><path d="M -102.921875 0 L -102.921875 0.265625 L -8.140625 176.53125 L -57.03125 176.53125 L -103.203125 88.53125 L -149.09375 176.53125 L -197.984375 176.53125 L -103.203125 0.265625 Z M -102.921875 0 "/></g></g></g></g></g><g clip-path="url(#faa79ead83)"><g transform="matrix(1, 0, 0, 1, 0, 0)"><g clip-path="url(#b2bf7b2a49)"><g clip-path="url(#1d4cf5e264)"><g clip-path="url(#d26f958f99)"><g clip-path="url(#90e9a822a9)"><g clip-path="url(#30a8822372)"><path fill="#00a8cc" d="M 247.488281 37.089844 C 166.957031 7.054688 77.320312 47.988281 47.285156 128.515625 C 17.246094 209.046875 58.179688 298.679688 138.710938 328.71875 C 219.242188 358.757812 308.875 317.824219 338.910156 237.292969 C 352.234375 201.570312 351.585938 164.0625 339.71875 130.753906 C 354.128906 168.238281 355.449219 210.925781 340.3125 251.511719 C 307.390625 339.773438 209.15625 384.632812 120.894531 351.710938 C 32.632812 318.792969 -12.226562 220.554688 20.695312 132.292969 C 53.613281 44.035156 151.851562 -0.828125 240.113281 32.09375 C 258.882812 39.09375 275.683594 49.058594 290.199219 61.246094 C 277.652344 51.238281 263.34375 43.003906 247.488281 37.089844 " fill-opacity="1" fill-rule="nonzero"/></g></g></g></g></g></g></g></svg>