<svg xmlns="http://www.w3.org/2000/svg" version="1.1" xmlns:xlink="http://www.w3.org/1999/xlink" xmlns:svgjs="http://svgjs.dev/svgjs" width="1440" height="560" preserveAspectRatio="none" viewBox="0 0 1440 560"><g mask="url(&quot;#SvgjsMask1001&quot;)" fill="none"><rect width="1440" height="560" x="0" y="0" fill="rgba(227, 195, 158, 1)"></rect><path d="M0,439.333C107.905,442.593,213.558,528.573,313.561,487.911C414.925,446.695,491.545,340.445,508.903,232.408C525.603,128.463,439.546,40.366,401.219,-57.687C372.639,-130.803,355.108,-204.803,312.287,-270.599C263.694,-345.262,213.346,-419.661,136.41,-464.569C45.908,-517.395,-61.825,-581.881,-160.483,-546.556C-259.594,-511.069,-270.982,-374.102,-339.491,-294.171C-407.464,-214.866,-534.444,-181.797,-559.938,-80.507C-585.528,21.166,-511.82,118.487,-467.238,213.38C-423.134,307.256,-394.994,424.173,-301.619,469.328C-208.781,514.224,-103.077,436.219,0,439.333" fill="#d29e62"></path><path d="M1440 1143.9360000000001C1546.862 1127.222 1630.533 1055.922 1725.8220000000001 1004.748 1830.599 948.4780000000001 1965.9189999999999 930.03 2027.6219999999998 828.358 2090.555 724.659 2081.8559999999998 589.186 2048.859 472.459 2017.984 363.23699999999997 1942.545 271 1851.071 203.805 1770.438 144.574 1665.189 148.2 1569.17 120.08800000000002 1473.247 92.00400000000002 1383.45 12.740000000000009 1286.912 38.63099999999997 1190.241 64.55700000000002 1158.701 185.23200000000003 1082.839 250.51799999999997 988.947 331.321 818.985 346.13599999999997 789.727 466.505 761.149 584.077 902.035 672.675 953.625 782.12 1004.373 889.78 994.8 1033.112 1090.296 1104.1509999999998 1186.372 1175.623 1321.693 1162.44 1440 1143.9360000000001" fill="#f4e8da"></path></g><defs><mask id="SvgjsMask1001"><rect width="1440" height="560" fill="#ffffff"></rect></mask></defs></svg>